<mxfile host="Electron" agent="Mozilla/5.0 (Macintosh; Intel Mac OS X 10_15_7) AppleWebKit/537.36 (KHTML, like Gecko) draw.io/26.1.1 Chrome/132.0.6834.210 Electron/34.3.3 Safari/537.36" version="26.1.1">
  <diagram name="Page-1" id="hMzjdBJM2Dz4sdbx1U00">
    <mxGraphModel dx="1114" dy="878" grid="1" gridSize="10" guides="1" tooltips="1" connect="1" arrows="1" fold="1" page="1" pageScale="1" pageWidth="827" pageHeight="1169" math="0" shadow="0">
      <root>
        <mxCell id="0" />
        <mxCell id="1" parent="0" />
        <mxCell id="7Z0H20UjNOor_g_QgdTO-5" value="애플리케이션&amp;nbsp;" style="ellipse;whiteSpace=wrap;html=1;align=right;fillColor=#d5e8d4;strokeColor=none;" vertex="1" parent="1">
          <mxGeometry x="70" y="90" width="390" height="140" as="geometry" />
        </mxCell>
        <mxCell id="7Z0H20UjNOor_g_QgdTO-4" value="셸&amp;nbsp;" style="ellipse;whiteSpace=wrap;html=1;align=right;fillColor=#f8cecc;strokeColor=none;" vertex="1" parent="1">
          <mxGeometry x="80" y="100" width="280" height="120" as="geometry" />
        </mxCell>
        <mxCell id="7Z0H20UjNOor_g_QgdTO-3" value="운영체제&amp;nbsp;" style="ellipse;whiteSpace=wrap;html=1;align=right;fillColor=#dae8fc;strokeColor=none;" vertex="1" parent="1">
          <mxGeometry x="90" y="112.5" width="210" height="95" as="geometry" />
        </mxCell>
        <mxCell id="7Z0H20UjNOor_g_QgdTO-2" value="커널&amp;nbsp;" style="ellipse;whiteSpace=wrap;html=1;align=right;fillColor=#F5CB9E;strokeColor=none;" vertex="1" parent="1">
          <mxGeometry x="100" y="125" width="130" height="70" as="geometry" />
        </mxCell>
        <mxCell id="7Z0H20UjNOor_g_QgdTO-1" value="하드웨어" style="ellipse;whiteSpace=wrap;html=1;fillColor=#f5f5f5;fontColor=#333333;strokeColor=none;" vertex="1" parent="1">
          <mxGeometry x="110" y="140" width="70" height="40" as="geometry" />
        </mxCell>
      </root>
    </mxGraphModel>
  </diagram>
</mxfile>
